<?xml version="1.0" encoding="UTF-8"?>
<svg width="320" height="320" enable-background="new 0 0 283.5 283.5" version="1.1" viewBox="0 0 320 320" xml:space="preserve" xmlns="http://www.w3.org/2000/svg"><style type="text/css">.st0{fill:#e32286}.st1{fill:url(#SVGID_1_)}.st2{fill:url(#SVGID_2_)}.st3{fill:url(#SVGID_3_)}</style><g transform="translate(24.835 17.731)"><path class="st1" d="m124.08-14.365c-10.694 0-19.186 9.3787-19.186 20.471v12.396c0 10.032-8.4119 18.514-18.477 18.514-5.0323 0-9.6716-2.2019-13.053-6.0352l-7.6289-7.8301c-3.4597-3.6701-8.5702-5.709-13.76-5.709-5.1896 0-10.221 2.1203-13.76 5.709l-17.691 17.943c-7.5485 7.8297-7.5485 20.635 0 28.383l7.3906 7.666c3.9315 3.6701 6.1328 8.5654 6.1328 13.785 0 10.44-8.1776 19.084-17.928 19.084h-11.951c-10.772 0-19.814 8.7263-19.814 19.818v24.795c0 11.01 9.0421 19.818 19.814 19.818h11.951c9.7501 0 17.928 8.7273 17.928 19.086 0 5.2194-2.2013 10.113-6.1328 13.783l-7.3906 7.584c-7.5485 7.8296-7.5485 20.634 0 28.383l17.533 18.107c3.4597 3.6694 8.5721 5.707 13.762 5.707 5.1896 0 9.321-1.2204 12.859-4.8086l7.627-7.8301c3.3025-3.8336 8.0204-6.0352 13.053-6.0352 10.065 0 17.696 8.5123 18.479 18.514l0.9004 11.498c0.85926 10.977 8.4913 20.471 19.264 20.471h23.904c10.694 0 19.186-9.3786 19.186-20.471v-12.127c0.60224-0.0507 1.1723-0.1289 1.7656-0.1875 1.2277-0.12157 2.4633-0.23493 3.6523-0.38867 4e-3 -5.2e-4 8e-3 -1e-3 0.0117-2e-3 1.4737-0.19069 2.8918-0.41164 4.3047-0.64648 0.49727-0.082 0.97526-0.1728 1.4648-0.25977 2.8987-0.5187 5.6618-1.1051 8.2832-1.7676 0.32442-0.0814 0.65458-0.15708 0.97461-0.24023 5.8085-1.5192 10.901-3.285 15.184-5.0644 3e-3 -1e-3 5e-3 -9e-4 8e-3 -2e-3l3.5879 3.7207c3.5384 3.5882 8.5702 5.709 13.76 5.709 5.1896 0 10.221-2.1208 13.76-5.709l17.535-18.105c7.0582-7.3211 7.4285-18.942 1.2871-26.828 4.3419-6.0773 7.2661-11.367 9.2871-15.633 0.54858-1.1487 0.98985-2.1256 1.4043-3.0957 0.74779-1.7621 1.2979-3.1556 1.666-4.2305 0.0923-0.26479 0.17118-0.44551 0.24414-0.66602 0.34617-1.0512 0.5332-1.709 0.5332-1.709-2.1604 1.6902-4.2244 3.2346-6.2148 4.6777-0.45902 0.33318-0.88367 0.62047-1.334 0.94141-1.5459 1.1002-3.0648 2.1626-4.5078 3.123-0.37593 0.25075-0.73246 0.47501-1.1016 0.71679-1.5188 0.99249-2.9978 1.9354-4.4024 2.7832-0.19903 0.12043-0.39309 0.23391-0.58984 0.35156-1.5829 0.94426-3.1073 1.8186-4.5469 2.5957-6e-3 3e-3 -0.0135 7e-3 -0.0195 0.01-15.616 8.4259-22.684 7.3008-22.684 7.3008 8.0196-3.4868 14.339-7.8552 19.293-12.074 1.1244-0.95751 2.1338-1.8734 3.1094-2.8027 0.10588-0.1005 0.20637-0.19686 0.31055-0.29688 5.001-4.8191 7.6864-8.468 8.9414-10.395 0.70261-1.0281 1.1445-1.7305 1.1445-1.7305 1.4383-1.9601 2.7286-3.9278 3.9199-5.8926 0.0833-0.13842 0.15026-0.27567 0.23242-0.41406 1.1142-1.863 2.1228-3.7195 3.0352-5.5684h7.2695c10.694 0 18.32-8.7262 18.32-19.818v-24.877c0.15729-11.092-7.4703-19.819-18.164-19.818l-7.8127 1.3e-4c-4.1121-0.18056-4.0313-0.18831-6.9192-8.2228-0.0644-0.15454-1.3494-4.0214-1.4146-4.1739-0.64719-1.5097-1.3142-2.9143-2.0059-4.2148-0.14338-0.27065-0.28176-0.50998-0.42578-0.77148-0.62713-1.1346-1.2422-2.1853-1.8594-3.1445-0.16382-0.25582-0.31698-0.4872-0.47852-0.73047-0.59281-0.88914-1.1487-1.688-1.6894-2.4062-0.15615-0.20853-0.29914-0.40356-0.44922-0.59766-0.52347-0.67416-0.98453-1.2455-1.4121-1.7422-0.12262-0.14326-0.1916-0.2308-0.30468-0.35937-0.98825-1.1228-1.6406-1.748-1.6406-1.748 0.77469 1.6512 1.4164 3.3272 1.9961 5.0117 0.0966 0.28215 0.20554 0.56288 0.29688 0.8457 0.16864 0.51886 0.2761 1.0436 0.42773 1.5645 0.45964 1.5921 0.8817 3.1891 1.1914 4.791 0.0761 0.38748 0.1235 0.7745 0.19141 1.1621 0.30268 1.7582 0.55141 3.5165 0.69921 5.2676 0.0169 0.19512 0.0278 0.38907 0.043 0.58398 0.14913 1.9781 0.22325 3.9478 0.20703 5.8926-1e-5 2e-3 2e-5 4e-3 0 6e-3 -0.17852 21.221-9.5527 39.674-9.5527 39.674-15.3 32.2-37 43.701-37 43.701 24.2 4.5 42-11.801 42-11.801-34.7 37.5-72.301 35.701-72.301 35.701 15.8 17.7 39.5 16.199 39.5 16.199-31 7.3-60.1-3.0004-84-22.9-4.5-3.7-8.7988-7.7-12.799-12 0 0-3.6008-3.7988-4.3008-4.7988l-0.0996-0.10156c-0.5 18.5 18.799 35.701 18.799 35.701-24.2-10-35.299-31.701-35.299-31.701s-16.3-27.8-4.5-59.5c11.8-31.7 47.5-38.5 47.5-38.5 29.5 14.3 54.5 18.801 54.5 18.801 52.7 8.8 49.699-17 49.699-17 0.0337-1.4986-0.1099-3.0022-0.36523-4.5059-0.16022-1.0061-0.30079-2.0197-0.30079-3.0664 0-5.2198 2.1222-9.952 5.8965-13.459l7.707-7.8281c7.6271-7.8297 7.6271-20.635 0-28.465l-17.535-18.025c-3.4597-3.5886-8.5702-5.709-13.76-5.709-5.1896 0-10.222 2.1203-13.76 5.709l-7.3926 7.668c-3.5384 4.0779-8.2563 6.2793-13.367 6.2793-10.065 0-18.479-8.4819-18.479-18.514v-12.479c0-11.01-8.5699-20.471-19.264-20.471zm10.484 42.281c2.8417-0.0038 5.7886 0.10403 8.8281 0.34766-9.1186-0.73096-17.399-0.23699-24.525 0.8125 4.7506-0.6997 10.014-1.1526 15.697-1.1602zm24.059 2.6777c4.6403 1.0404 9.4184 2.4062 14.318 4.207-4.9006-1.801-9.6775-3.1666-14.318-4.207zm24.955 8.7129c3.595 1.7288 7.2352 3.692 10.91 5.916 3.6749 2.224 7.384 4.7078 11.115 7.4766 0 0 1.9744 1.407 4.9102 3.791-2.8214-2.2798-4.9102-3.791-4.9102-3.791-3.7312-2.7687-7.4403-5.2526-11.115-7.4766-3.6749-2.224-7.3152-4.1872-10.91-5.916zm28.936 18.877c0.95416 0.80394 1.8553 1.5618 2.9219 2.5156-1.047-0.9346-1.9837-1.7258-2.9219-2.5156zm5.6328 5.0664c1.0421 0.98529 2.0438 1.937 3.1133 3.0254-1.0574-1.0743-2.0829-2.0519-3.1133-3.0254zm-46.543 4.5508c3 0 5.4004 2.3984 5.4004 5.3984s-2.4004 5.4004-5.4004 5.4004-5.4004-2.4004-5.4004-5.4004 2.4004-5.3984 5.4004-5.3984zm54.564 3.7891c0.25342 0.29722 0.49763 0.59682 0.74805 0.89844-0.24933-0.29998-0.49575-0.60281-0.74805-0.89844zm2.7559 3.3965c0.2292 0.29899 0.44328 0.60584 0.66797 0.9082-0.22446-0.30175-0.43902-0.60981-0.66797-0.9082zm2.6191 3.6426c0.18718 0.27945 0.35306 0.56603 0.53516 0.84766-0.1821-0.28136-0.34799-0.56847-0.53516-0.84766zm2.3457 3.7969c0.0831 0.14778 0.14908 0.29904 0.23046 0.44727-0.0814-0.14816-0.14735-0.29954-0.23046-0.44727zm22.311 38.572c-1e-3 0.0609-7.2e-4 0.1206-2e-3 0.18164 1e-3 -0.0609 8.8e-4 -0.12087 2e-3 -0.18164zm-0.41406 6.1191c-0.0172 0.14766-0.0403 0.29699-0.0586 0.44531 0.0184-0.14807 0.0413-0.29789 0.0586-0.44531zm12.131 2.2207c0.0821 0.55031 0.0988 0.62089 0.18164 1.334-0.0623-0.52163-0.11925-0.90115-0.18164-1.334zm0.38477 3.6426c0.0773 0.92758 0.13566 1.8527 0.18164 2.9434-0.0471-1.0565-0.10529-2.0413-0.18164-2.9434zm-15.484 7.5547c-0.0593 0.18449-0.10881 0.36356-0.16992 0.54882 0.0611-0.18497 0.11059-0.36461 0.16992-0.54882zm-2.6856 7.1523c-0.16544 0.38853-0.33257 0.77645-0.50586 1.168 0.17325-0.39123 0.34044-0.77972 0.50586-1.168zm17.951 0.37305c-8e-3 0.0695-0.0116 0.13539-0.0195 0.20507 8e-3 -0.0691 0.012-0.13615 0.0195-0.20507zm-0.50195 3.7226c-0.0356 0.2257-0.0715 0.45017-0.10937 0.67774 0.0375-0.22693 0.0741-0.45267 0.10937-0.67774zm-21.305 3.9062c-0.18027 0.3343-0.38035 0.67352-0.5664 1.0098 0.1859-0.33595 0.38626-0.67576 0.5664-1.0098zm20.5 0.42774c-0.0423 0.19749-0.0907 0.3971-0.13476 0.5957 0.0438-0.19821 0.0927-0.39859 0.13476-0.5957zm-1.1035 4.5273c-0.0267 0.0968-0.0588 0.19598-0.0859 0.29297 0.0271-0.0969 0.0593-0.19626 0.0859-0.29297zm-230.48 28.842c1.2951 2.7598 2.6723 5.4977 4.1797 8.1953-1.5076-2.6979-2.8844-5.4352-4.1797-8.1953zm4.1816 8.1973c1.7988 3.219 3.7445 6.3906 5.832 9.5156-2.087-3.1242-4.0336-6.2975-5.832-9.5156zm10.883 16.496c2.6278 3.3723 5.3886 6.4566 8.1914 9.3984-2.8032-2.9422-5.5633-6.0257-8.1914-9.3984zm190.41 16.664c-0.74359 0.76759-1.4834 1.5318-2.2695 2.3047 0.78719-0.77268 1.5247-1.5373 2.2695-2.3047zm-4.5117 4.4394c-0.96892 0.91066-1.9655 1.8208-2.9961 2.7344 1.0312-0.91302 2.0262-1.8242 2.9961-2.7344zm-5.2441 4.6875c-1.2175 1.0347-2.4922 2.0669-3.793 3.0996 1.3004-1.0318 2.5749-2.0655 3.793-3.0996zm-5.8555 4.7344c-2.0556 1.5735-4.1862 3.1419-6.4473 4.6953 2.2598-1.5525 4.3907-3.1218 6.4473-4.6953zm-9.5938 6.6719c-0.85112 0.52256-1.4076 0.82547-2.6836 1.5293 0.9977-0.55511 1.9538-1.086 2.6836-1.5293zm-116.78 1.7363c5.0246 2.5164 8.8133 4.0616 11.396 5.0508-2.5833-0.98931-6.3725-2.5347-11.396-5.0508zm110.94 1.4863c-0.0843 0.0422-0.16651 0.0825-0.25195 0.125 0.0821-0.041 0.17088-0.0842 0.25195-0.125zm-89.414 6.9082c0.6727 0.19252 1.3363 0.36429 2.0039 0.54492-0.66775-0.18038-1.331-0.35256-2.0039-0.54492zm6.9199 1.7852c0.6146 0.1428 1.2299 0.2869 1.8398 0.41992-0.61013-0.13262-1.225-0.27745-1.8398-0.41992zm7.998 1.625c0.0523 9e-3 0.10598 0.0205 0.1582 0.0293-0.0522-9e-3 -0.10595-0.0205-0.1582-0.0293zm27.705 1.6445c-1.2362 0.0618-2.4923 0.0998-3.7617 0.125 1.27-0.0242 2.5253-0.0639 3.7617-0.125z" fill="url(#SVGID_1_)"/><path class="st0" d="m29.6 175.3c-5.2-16.2-6.7-33.3-3.7-50.9 1.3-7.3 3.3-14.3 5.5-21.4 0 0 13.8-45.3 60.5-66 0 0 16.1-8.5 40.3-9.1 0 0-3.3-3.2-5.4-4.6-11.4-7.6-28.4-10.1-38.7 0.6-3.1 3.2-5.7 6.7-8.6 9.9-3.3 3.6-7.3 6.6-11.9 8.3-4 1.5-8 1.2-12.1 1.9-4.2 0.7-8.5 2.2-11.9 4.9-3.7 3-5.2 7-5.6 11.6-0.4 3.6-0.3 7.3-0.5 10.9-0.5 10.6-3.9 13.6-11.5 19.5-3.2 2.4-5.9 5.6-7.9 9-6 10.6 3.6 21.6 4.1 32.3 0.1 2.2-0.1 4.4-0.9 6.5-0.8 2.3-2.4 3.8-3.7 5.7-1.8 2.5-3 5.5-2.5 8.6s2.1 6 3.6 8.7c2.9 4.8 6.5 9.1 10.3 13.2 0.2 0 0.4 0.2 0.6 0.4" display="none"/><linearGradient id="SVGID_1_" x1="53.496" x2="177.93" y1="247.7" y2="115.32" gradientUnits="userSpaceOnUse"><stop stop-color="#E01D84" offset="0"/><stop stop-color="#DF1D85" offset=".401"/><stop stop-color="#932C87" offset=".77"/><stop stop-color="#5D2F88" offset="1"/></linearGradient><radialGradient id="SVGID_2_" cx="190.46" cy="80.2" r="121.58" gradientTransform="matrix(1 .002388 -.0019967 .8362 .1607 12.685)" gradientUnits="userSpaceOnUse"><stop stop-color="#E01D84" offset="0"/><stop stop-color="#DE1E85" offset=".139"/><stop stop-color="#D62085" offset=".285"/><stop stop-color="#C92386" offset=".434"/><stop stop-color="#B72786" offset=".586"/><stop stop-color="#9D2B87" offset=".739"/><stop stop-color="#7C2E88" offset=".891"/><stop stop-color="#5D2F88" offset="1"/></radialGradient><path class="st2" d="m238.5 98.4c0.5-22.2-33-45.8-33-45.8-59.7-44.2-113.7-15.6-113.7-15.6-46.7 20.7-60.5 66-60.5 66-2.7 7.7-5.1 19.5-5.1 19.5-2.9 14.8-1.6 28.5-1.6 28.5 1.2 13.1 4.1 21.9 4.1 21.9 3 9.4 4.4 12.3 4.4 12.3-0.1-0.3-0.6-2.5-0.6-2.5s-4.2-20.2-0.3-39.6c0 0 3.4-20.2 17.2-35.8 0 0 22.4-31.9 64.1-19.4 0 0 9 3.2 12.1 4.8 3.1 1.5 8.5 3.8 8.5 3.8 29.5 14.3 54.5 18.8 54.5 18.8 52.9 8.9 49.9-16.9 49.9-16.9zm-66.9-19.7c-3 0-5.4-2.4-5.4-5.4s2.4-5.4 5.4-5.4 5.4 2.4 5.4 5.4-2.4 5.4-5.4 5.4z" fill="url(#SVGID_2_)"/><linearGradient id="SVGID_3_" x1="83.212" x2="137.37" y1="62.336" y2="62.336" gradientUnits="userSpaceOnUse"><stop stop-color="#E01D84" offset="0"/><stop stop-color="#DA1E85" offset=".238"/><stop stop-color="#C72085" offset=".658"/><stop stop-color="#B52284" offset=".999"/></linearGradient><path class="st3" d="m137.4 58.2-34.1-10.6c-0.2 0-1.2-0.5-3 0 0 0-20.1 5.1-16.6 16.1 0 0 2.1 6.9 7.8 13.6l37.5-1.8z" fill="url(#SVGID_3_)"/></g></svg>
